<svg width="28" height="16" viewBox="0 0 28 16" fill="none" xmlns="http://www.w3.org/2000/svg">
<path d="M1.08569 7.05664C0.533409 7.05664 0.0856934 7.50436 0.0856934 8.05664C0.0856934 8.60893 0.533409 9.05664 1.08569 9.05664V7.05664ZM26.8118 8.76375C27.2024 8.37322 27.2024 7.74006 26.8118 7.34953L20.4479 0.985573C20.0574 0.595048 19.4242 0.595048 19.0337 0.985573C18.6431 1.3761 18.6431 2.00926 19.0337 2.39979L24.6905 8.05664L19.0337 13.7135C18.6431 14.104 18.6431 14.7372 19.0337 15.1277C19.4242 15.5182 20.0574 15.5182 20.4479 15.1277L26.8118 8.76375ZM1.08569 9.05664H26.1047V7.05664H1.08569V9.05664Z" fill="white"/>
</svg>
