<svg width="265" height="29" viewBox="0 0 265 29" fill="none" xmlns="http://www.w3.org/2000/svg">
<path d="M104.946 6.65504V17.1298H111.156C115.975 17.1298 117.651 14.9301 117.651 11.8924C117.651 8.85473 115.975 6.65504 111.156 6.65504H104.946ZM106.054 16.0823V7.68755H111.156C115.286 7.68755 116.558 9.48322 116.558 11.8924C116.558 14.3016 115.286 16.0823 111.156 16.0823H106.054ZM121.204 17.1298V8.15143H120.172V17.1298H121.204ZM120.681 4.76959C120.112 4.76959 119.873 5.05391 119.873 5.4729C119.873 5.87692 120.112 6.16124 120.681 6.16124C121.264 6.16124 121.504 5.87692 121.504 5.4729C121.504 5.05391 121.264 4.76959 120.681 4.76959ZM129.403 7.97187C125.272 7.97187 123.537 9.90221 123.537 12.5807C123.537 15.2443 125.272 17.1747 129.403 17.1747C132.365 17.1747 134.086 16.187 134.834 14.6458V15.4837C134.834 17.9977 133.922 19.509 128.939 19.509C127.143 19.509 125.602 19.1648 124.195 18.7309V19.6736C125.632 20.1076 127.218 20.4218 129.133 20.4218C134.76 20.4218 135.867 18.5064 135.867 15.4837V8.15143H134.834V10.5008C134.086 8.95948 132.365 7.97187 129.403 7.97187ZM129.702 16.2768C126.006 16.2768 124.569 14.7206 124.569 12.6107C124.569 10.5008 126.006 8.94452 129.702 8.94452C133.398 8.94452 134.834 10.5008 134.834 12.6107C134.834 14.7206 133.398 16.2768 129.702 16.2768ZM139.81 17.1298V8.15143H138.778V17.1298H139.81ZM139.287 4.76959C138.718 4.76959 138.479 5.05391 138.479 5.4729C138.479 5.87692 138.718 6.16124 139.287 6.16124C139.87 6.16124 140.11 5.87692 140.11 5.4729C140.11 5.05391 139.87 4.76959 139.287 4.76959ZM144.91 5.89189V8.15143H141.903V9.09416H144.91V13.1194C144.91 15.783 145.988 17.3093 149.848 17.3093C151.061 17.3093 151.973 17.2195 152.841 17.01V16.0524C152.078 16.2319 151.21 16.3367 150.133 16.3367C146.781 16.3367 145.943 15.1695 145.943 13.0895V9.09416H152.841V8.15143H145.943V5.60757L144.91 5.89189ZM160.402 7.97187C156.272 7.97187 154.536 9.93213 154.536 12.6406C154.536 15.3491 156.272 17.3093 160.402 17.3093C163.365 17.3093 165.086 16.3067 165.834 14.7505V17.1298H166.867V8.15143H165.834V10.5307C165.086 8.97445 163.365 7.97187 160.402 7.97187ZM160.702 16.3367C157.005 16.3367 155.569 14.7655 155.569 12.6406C155.569 10.5157 157.005 8.94452 160.702 8.94452C164.398 8.94452 165.834 10.5157 165.834 12.6406C165.834 14.7655 164.398 16.3367 160.702 16.3367ZM170.795 5.15866H169.763V17.1298H170.795V5.15866ZM186.17 11.4435C181.651 11.4285 181.187 10.5756 181.187 9.4084C181.187 8.25618 181.965 7.38827 186.17 7.38827C190.345 7.38827 191.123 8.27114 191.123 9.49818H192.215C192.215 7.77734 191.183 6.47548 186.17 6.47548C181.157 6.47548 180.079 7.73244 180.079 9.4084C180.079 11.1143 180.842 12.2515 186.17 12.2815C190.868 12.2964 191.392 13.1643 191.392 14.3465C191.392 15.5286 190.554 16.4115 186.17 16.4115C181.8 16.4115 180.947 15.5286 180.947 14.2417H179.855C179.855 16.0075 180.977 17.3093 186.17 17.3093C191.362 17.3093 192.484 16.0524 192.484 14.3465C192.484 12.6406 191.691 11.4734 186.17 11.4435ZM196.986 5.89189V8.15143H193.978V9.09416H196.986V13.1194C196.986 15.783 198.063 17.3093 201.924 17.3093C203.136 17.3093 204.049 17.2195 204.917 17.01V16.0524C204.154 16.2319 203.286 16.3367 202.208 16.3367C198.856 16.3367 198.018 15.1695 198.018 13.0895V9.09416H204.917V8.15143H198.018V5.60757L196.986 5.89189ZM217.502 8.15143V12.3712C217.472 14.5111 215.916 16.3666 212.549 16.3666C209.152 16.3666 208.06 14.4812 208.06 12.3413V8.15143H207.027V12.3413C207.027 15.0647 208.374 17.3093 212.25 17.3093C215.018 17.3093 216.739 16.1571 217.502 14.4961V17.1298H218.535V8.15143H217.502ZM226.742 7.97187C222.612 7.97187 220.876 9.93213 220.876 12.6406C220.876 15.3491 222.612 17.3093 226.742 17.3093C229.705 17.3093 231.426 16.3067 232.174 14.7505V17.1298H233.206V5.15866H232.174V10.5307C231.426 8.97445 229.705 7.97187 226.742 7.97187ZM227.041 16.3367C223.345 16.3367 221.909 14.7655 221.909 12.6406C221.909 10.5157 223.345 8.94452 227.041 8.94452C230.737 8.94452 232.174 10.5157 232.174 12.6406C232.174 14.7655 230.737 16.3367 227.041 16.3367ZM237.15 17.1298V8.15143H236.117V17.1298H237.15ZM236.626 4.76959C236.058 4.76959 235.818 5.05391 235.818 5.4729C235.818 5.87692 236.058 6.16124 236.626 6.16124C237.21 6.16124 237.449 5.87692 237.449 5.4729C237.449 5.05391 237.21 4.76959 236.626 4.76959ZM245.647 7.97187C241.263 7.97187 239.482 9.93213 239.482 12.6406C239.482 15.3491 241.263 17.3093 245.647 17.3093C250.032 17.3093 251.812 15.3491 251.812 12.6406C251.812 9.93213 250.032 7.97187 245.647 7.97187ZM245.647 16.3367C241.951 16.3367 240.515 14.7655 240.515 12.6406C240.515 10.5157 241.951 8.94452 245.647 8.94452C249.343 8.94452 250.78 10.5157 250.78 12.6406C250.78 14.7655 249.343 16.3367 245.647 16.3367Z" fill="black"/>
<path d="M5.77606 19.8122C5.79601 20.6502 6.07534 21.2786 6.61403 21.6976C7.15273 22.0967 7.85105 22.2962 8.70898 22.2962C9.56691 22.2962 10.2652 22.0967 10.8039 21.6976C11.3426 21.2786 11.612 20.6502 11.612 19.8122V0H17.388V19.8122C17.388 20.9295 17.1785 21.9969 16.7595 23.0144C16.3605 24.012 15.7819 24.8899 15.0237 25.6481C14.2855 26.3863 13.3777 26.9749 12.3003 27.4138C11.2429 27.8528 10.0458 28.0722 8.70898 28.0722C7.3323 28.0722 6.10526 27.8528 5.02786 27.4138C3.95046 26.9549 3.03268 26.3464 2.27451 25.5882C1.53629 24.8101 0.967664 23.9223 0.568627 22.9247C0.189543 21.9271 0 20.8896 0 19.8122H5.77606Z" fill="black"/>
<path d="M22.5026 7.99071H28.0991V19.3633C28.0991 20.4008 28.3685 21.2188 28.9072 21.8173C29.4658 22.3959 30.1342 22.7351 30.9123 22.8349C31.3912 22.9147 31.88 22.9047 32.3788 22.805C32.8975 22.7052 33.3664 22.5356 33.7854 22.2962C34.2044 22.0568 34.5535 21.7475 34.8329 21.3684C35.1122 20.9694 35.2519 20.5205 35.2519 20.0217V7.99071H40.8484V28.0722H36.03L35.2519 27.0248C34.6334 27.3839 33.9251 27.6533 33.127 27.8328C32.3289 27.9924 31.5907 28.0722 30.9123 28.0722C29.8349 28.0722 28.7875 27.8727 27.7699 27.4737C26.7723 27.0547 25.8845 26.4661 25.1064 25.7079C24.3282 24.9498 23.6997 24.042 23.2209 22.9845C22.7421 21.9071 22.5026 20.7 22.5026 19.3633V13.7967V7.99071Z" fill="black"/>
<path d="M49.8655 21.548C49.9054 22.0468 50.0451 22.3959 50.2845 22.5955C50.5439 22.775 50.9329 22.8648 51.4517 22.8648C51.7709 22.8648 52.0502 22.8249 52.2896 22.7451C52.549 22.6453 52.6987 22.5156 52.7386 22.356C52.8383 22.1166 52.7785 21.9071 52.559 21.7276C52.3595 21.528 52.1799 21.3784 52.0203 21.2786C51.8607 21.1988 51.7809 21.1589 51.7809 21.1589C51.0426 20.8397 50.2546 20.4806 49.4166 20.0815C48.5786 19.6825 47.8105 19.2036 47.1121 18.645C46.4138 18.0863 45.8252 17.4279 45.3464 16.6698C44.8875 15.9116 44.6581 14.9938 44.6581 13.9164C44.6581 13.1383 44.8077 12.4001 45.107 11.7018C45.4063 10.9835 45.8452 10.355 46.4238 9.81631C47.0024 9.27761 47.7107 8.84864 48.5487 8.52941C49.3866 8.19023 50.3543 8.02064 51.4517 8.02064C53.7461 8.02064 55.4819 8.56931 56.6591 9.66667C57.8562 10.764 58.5146 12.2504 58.6343 14.1259H53.0678C53.0279 14.066 52.9979 14.0162 52.978 13.9763C52.958 13.9164 52.9381 13.8665 52.9181 13.8266C52.8184 13.667 52.6488 13.5573 52.4094 13.4974C52.1899 13.4176 51.9505 13.3777 51.6911 13.3777C51.2521 13.3777 50.9429 13.4775 50.7633 13.677C50.6835 13.8965 50.6935 14.086 50.7933 14.2456C50.893 14.4052 51.0227 14.5249 51.1823 14.6047C52.0801 15.0636 52.978 15.5225 53.8758 15.9814C54.7936 16.4204 55.6116 16.9291 56.3299 17.5077C57.0681 18.0664 57.6667 18.7049 58.1256 19.4231C58.6044 20.1414 58.8438 20.9893 58.8438 21.967C58.8438 22.765 58.6942 23.5332 58.3949 24.2714C58.1156 25.0096 57.6766 25.6581 57.0781 26.2167C56.4995 26.7754 55.7613 27.2243 54.8634 27.5635C53.9656 27.9026 52.8982 28.0722 51.6612 28.0722C49.4066 28.0722 47.6309 27.5535 46.334 26.516C45.0571 25.4585 44.3588 23.8025 44.2391 21.548H49.8655Z" fill="black"/>
<path d="M62.2511 8.02064V2.66357H67.8476V8.02064H101.696V13.8266H67.8476V21.0991C67.8476 21.4383 67.9673 21.7176 68.2068 21.937C68.4462 22.1366 68.7255 22.2563 69.0447 22.2962H101.696V28.0722H70.7207C69.5635 28.0722 68.4661 27.9725 67.4286 27.773C66.4111 27.5734 65.5133 27.2243 64.7352 26.7255C63.977 26.2267 63.3684 25.5483 62.9096 24.6904C62.4706 23.8325 62.2511 22.7351 62.2511 21.3983V13.8266H60.5453V8.02064H62.2511Z" fill="black"/>
<path d="M104.544 25.3189C104.544 24.4809 104.794 23.7926 105.293 23.2539C105.811 22.7152 106.47 22.4458 107.268 22.4458C108.086 22.4458 108.734 22.7152 109.213 23.2539C109.712 23.7926 109.961 24.4809 109.961 25.3189C109.961 26.1569 109.712 26.8452 109.213 27.3839C108.734 27.9226 108.076 28.1919 107.238 28.1919C106.44 28.1919 105.791 27.9226 105.293 27.3839C104.794 26.8452 104.544 26.1569 104.544 25.3189Z" fill="black"/>
</svg>
