<svg width="266" height="29" viewBox="0 0 266 29" fill="none" xmlns="http://www.w3.org/2000/svg">
<path d="M105.2 7.63989V18.1399H111.425C116.255 18.1399 117.935 15.9349 117.935 12.8899C117.935 9.84489 116.255 7.63989 111.425 7.63989H105.2ZM106.31 17.0899V8.67489H111.425C115.565 8.67489 116.84 10.4749 116.84 12.8899C116.84 15.3049 115.565 17.0899 111.425 17.0899H106.31ZM121.497 18.1399V9.13989H120.462V18.1399H121.497ZM120.972 5.74989C120.402 5.74989 120.162 6.03489 120.162 6.45489C120.162 6.85989 120.402 7.14489 120.972 7.14489C121.557 7.14489 121.797 6.85989 121.797 6.45489C121.797 6.03489 121.557 5.74989 120.972 5.74989ZM129.715 8.95989C125.575 8.95989 123.835 10.8949 123.835 13.5799C123.835 16.2499 125.575 18.1849 129.715 18.1849C132.685 18.1849 134.41 17.1949 135.16 15.6499V16.4899C135.16 19.0099 134.245 20.5249 129.25 20.5249C127.45 20.5249 125.905 20.1799 124.495 19.7449V20.6899C125.935 21.1249 127.525 21.4399 129.445 21.4399C135.085 21.4399 136.195 19.5199 136.195 16.4899V9.13989H135.16V11.4949C134.41 9.94989 132.685 8.95989 129.715 8.95989ZM130.015 17.2849C126.31 17.2849 124.87 15.7249 124.87 13.6099C124.87 11.4949 126.31 9.93489 130.015 9.93489C133.72 9.93489 135.16 11.4949 135.16 13.6099C135.16 15.7249 133.72 17.2849 130.015 17.2849ZM140.148 18.1399V9.13989H139.113V18.1399H140.148ZM139.623 5.74989C139.053 5.74989 138.813 6.03489 138.813 6.45489C138.813 6.85989 139.053 7.14489 139.623 7.14489C140.208 7.14489 140.448 6.85989 140.448 6.45489C140.448 6.03489 140.208 5.74989 139.623 5.74989ZM145.26 6.87489V9.13989H142.245V10.0849H145.26V14.1199C145.26 16.7899 146.34 18.3199 150.21 18.3199C151.425 18.3199 152.34 18.2299 153.21 18.0199V17.0599C152.445 17.2399 151.575 17.3449 150.495 17.3449C147.135 17.3449 146.295 16.1749 146.295 14.0899V10.0849H153.21V9.13989H146.295V6.58989L145.26 6.87489ZM160.789 8.95989C156.649 8.95989 154.909 10.9249 154.909 13.6399C154.909 16.3549 156.649 18.3199 160.789 18.3199C163.759 18.3199 165.484 17.3149 166.234 15.7549V18.1399H167.269V9.13989H166.234V11.5249C165.484 9.96489 163.759 8.95989 160.789 8.95989ZM161.089 17.3449C157.384 17.3449 155.944 15.7699 155.944 13.6399C155.944 11.5099 157.384 9.93489 161.089 9.93489C164.794 9.93489 166.234 11.5099 166.234 13.6399C166.234 15.7699 164.794 17.3449 161.089 17.3449ZM171.207 6.13989H170.172V18.1399H171.207V6.13989ZM186.619 12.4399C182.089 12.4249 181.624 11.5699 181.624 10.3999C181.624 9.24489 182.404 8.37489 186.619 8.37489C190.804 8.37489 191.584 9.25989 191.584 10.4899H192.679C192.679 8.76489 191.644 7.45989 186.619 7.45989C181.594 7.45989 180.514 8.71989 180.514 10.3999C180.514 12.1099 181.279 13.2499 186.619 13.2799C191.329 13.2949 191.854 14.1649 191.854 15.3499C191.854 16.5349 191.014 17.4199 186.619 17.4199C182.239 17.4199 181.384 16.5349 181.384 15.2449H180.289C180.289 17.0149 181.414 18.3199 186.619 18.3199C191.824 18.3199 192.949 17.0599 192.949 15.3499C192.949 13.6399 192.154 12.4699 186.619 12.4399ZM197.461 6.87489V9.13989H194.446V10.0849H197.461V14.1199C197.461 16.7899 198.541 18.3199 202.411 18.3199C203.626 18.3199 204.541 18.2299 205.411 18.0199V17.0599C204.646 17.2399 203.776 17.3449 202.696 17.3449C199.336 17.3449 198.496 16.1749 198.496 14.0899V10.0849H205.411V9.13989H198.496V6.58989L197.461 6.87489ZM218.027 9.13989V13.3699C217.997 15.5149 216.437 17.3749 213.062 17.3749C209.657 17.3749 208.562 15.4849 208.562 13.3399V9.13989H207.527V13.3399C207.527 16.0699 208.877 18.3199 212.762 18.3199C215.537 18.3199 217.262 17.1649 218.027 15.4999V18.1399H219.062V9.13989H218.027ZM227.289 8.95989C223.149 8.95989 221.409 10.9249 221.409 13.6399C221.409 16.3549 223.149 18.3199 227.289 18.3199C230.259 18.3199 231.984 17.3149 232.734 15.7549V18.1399H233.769V6.13989H232.734V11.5249C231.984 9.96489 230.259 8.95989 227.289 8.95989ZM227.589 17.3449C223.884 17.3449 222.444 15.7699 222.444 13.6399C222.444 11.5099 223.884 9.93489 227.589 9.93489C231.294 9.93489 232.734 11.5099 232.734 13.6399C232.734 15.7699 231.294 17.3449 227.589 17.3449ZM237.722 18.1399V9.13989H236.687V18.1399H237.722ZM237.197 5.74989C236.627 5.74989 236.387 6.03489 236.387 6.45489C236.387 6.85989 236.627 7.14489 237.197 7.14489C237.782 7.14489 238.022 6.85989 238.022 6.45489C238.022 6.03489 237.782 5.74989 237.197 5.74989ZM246.24 8.95989C241.845 8.95989 240.06 10.9249 240.06 13.6399C240.06 16.3549 241.845 18.3199 246.24 18.3199C250.635 18.3199 252.42 16.3549 252.42 13.6399C252.42 10.9249 250.635 8.95989 246.24 8.95989ZM246.24 17.3449C242.535 17.3449 241.095 15.7699 241.095 13.6399C241.095 11.5099 242.535 9.93489 246.24 9.93489C249.945 9.93489 251.385 11.5099 251.385 13.6399C251.385 15.7699 249.945 17.3449 246.24 17.3449Z" fill="white"/>
<path d="M5.79 19.86C5.81 20.7 6.09 21.33 6.63 21.75C7.17 22.15 7.87 22.35 8.73 22.35C9.59 22.35 10.29 22.15 10.83 21.75C11.37 21.33 11.64 20.7 11.64 19.86V0H17.43V19.86C17.43 20.98 17.22 22.05 16.8 23.07C16.4 24.07 15.82 24.95 15.06 25.71C14.32 26.45 13.41 27.04 12.33 27.48C11.27 27.92 10.07 28.14 8.73 28.14C7.35 28.14 6.12 27.92 5.04 27.48C3.96 27.02 3.04 26.41 2.28 25.65C1.54 24.87 0.97 23.98 0.57 22.98C0.19 21.98 0 20.94 0 19.86H5.79Z" fill="white"/>
<path d="M22.557 8.01H28.167V19.41C28.167 20.45 28.437 21.27 28.977 21.87C29.537 22.45 30.207 22.79 30.987 22.89C31.467 22.97 31.957 22.96 32.457 22.86C32.977 22.76 33.447 22.59 33.867 22.35C34.287 22.11 34.637 21.8 34.917 21.42C35.197 21.02 35.337 20.57 35.337 20.07V8.01H40.947V28.14H36.117L35.337 27.09C34.717 27.45 34.007 27.72 33.207 27.9C32.407 28.06 31.667 28.14 30.987 28.14C29.907 28.14 28.857 27.94 27.837 27.54C26.837 27.12 25.947 26.53 25.167 25.77C24.387 25.01 23.757 24.1 23.277 23.04C22.797 21.96 22.557 20.75 22.557 19.41V13.83V8.01Z" fill="white"/>
<path d="M49.9859 21.6C50.0259 22.1 50.1659 22.45 50.4059 22.65C50.6659 22.83 51.0559 22.92 51.5759 22.92C51.8959 22.92 52.1759 22.88 52.4159 22.8C52.6759 22.7 52.8259 22.57 52.8659 22.41C52.9659 22.17 52.9059 21.96 52.6859 21.78C52.4859 21.58 52.3059 21.43 52.1459 21.33C51.9859 21.25 51.9059 21.21 51.9059 21.21C51.1659 20.89 50.3759 20.53 49.5359 20.13C48.6959 19.73 47.9259 19.25 47.2259 18.69C46.5259 18.13 45.9359 17.47 45.4559 16.71C44.9959 15.95 44.7659 15.03 44.7659 13.95C44.7659 13.17 44.9159 12.43 45.2159 11.73C45.5159 11.01 45.9559 10.38 46.5359 9.84C47.1159 9.3 47.8259 8.87 48.6659 8.55C49.5059 8.21 50.4759 8.04 51.5759 8.04C53.8759 8.04 55.6159 8.59 56.7959 9.69C57.9959 10.79 58.6559 12.28 58.7759 14.16H53.1959C53.1559 14.1 53.1259 14.05 53.1059 14.01C53.0859 13.95 53.0659 13.9 53.0459 13.86C52.9459 13.7 52.7759 13.59 52.5359 13.53C52.3159 13.45 52.0759 13.41 51.8159 13.41C51.3759 13.41 51.0659 13.51 50.8859 13.71C50.8059 13.93 50.8159 14.12 50.9159 14.28C51.0159 14.44 51.1459 14.56 51.3059 14.64C52.2059 15.1 53.1059 15.56 54.0059 16.02C54.9259 16.46 55.7459 16.97 56.4659 17.55C57.2059 18.11 57.8059 18.75 58.2659 19.47C58.7459 20.19 58.9859 21.04 58.9859 22.02C58.9859 22.82 58.8359 23.59 58.5359 24.33C58.2559 25.07 57.8159 25.72 57.2159 26.28C56.6359 26.84 55.8959 27.29 54.9959 27.63C54.0959 27.97 53.0259 28.14 51.7859 28.14C49.5259 28.14 47.7459 27.62 46.4459 26.58C45.1659 25.52 44.4659 23.86 44.3459 21.6H49.9859Z" fill="white"/>
<path d="M62.4014 8.04V2.67H68.0114V8.04H101.941V13.86H68.0114V21.15C68.0114 21.49 68.1314 21.77 68.3714 21.99C68.6114 22.19 68.8914 22.31 69.2114 22.35H101.941V28.14H70.8914C69.7314 28.14 68.6314 28.04 67.5914 27.84C66.5714 27.64 65.6714 27.29 64.8914 26.79C64.1314 26.29 63.5214 25.61 63.0614 24.75C62.6214 23.89 62.4014 22.79 62.4014 21.45V13.86H60.6914V8.04H62.4014Z" fill="white"/>
<path d="M104.797 25.38C104.797 24.54 105.047 23.85 105.547 23.31C106.067 22.77 106.727 22.5 107.527 22.5C108.347 22.5 108.997 22.77 109.477 23.31C109.977 23.85 110.227 24.54 110.227 25.38C110.227 26.22 109.977 26.91 109.477 27.45C108.997 27.99 108.337 28.26 107.497 28.26C106.697 28.26 106.047 27.99 105.547 27.45C105.047 26.91 104.797 26.22 104.797 25.38Z" fill="white"/>
</svg>
