<svg width="179" height="18" viewBox="0 0 179 18" fill="none" xmlns="http://www.w3.org/2000/svg">
<path d="M4.5 1C4.5 0.723858 4.27614 0.5 4 0.5C3.72386 0.5 3.5 0.723858 3.5 1H4.5ZM3.64645 14.8536C3.84171 15.0488 4.15829 15.0488 4.35355 14.8536L7.53553 11.6716C7.7308 11.4763 7.7308 11.1597 7.53553 10.9645C7.34027 10.7692 7.02369 10.7692 6.82843 10.9645L4 13.7929L1.17157 10.9645C0.976311 10.7692 0.659728 10.7692 0.464466 10.9645C0.269204 11.1597 0.269204 11.4763 0.464466 11.6716L3.64645 14.8536ZM3.5 1V14.5H4.5V1H3.5Z" fill="white"/>
<path d="M23.615 9.08C19.535 9.08 19.07 8.36 19.07 7.355C19.07 6.365 19.835 5.63 23.615 5.63C27.425 5.63 28.16 6.5 28.16 7.76H29.195C29.195 6.02 28.1 4.82 23.615 4.82C19.1 4.82 18.035 5.87 18.035 7.34C18.035 8.84 18.74 9.89 23.615 9.89C27.83 9.89 28.31 10.61 28.31 11.63C28.31 12.635 27.515 13.37 23.615 13.37C19.685 13.37 18.92 12.5 18.92 11.24H17.885C17.885 12.995 19.01 14.18 23.615 14.18C28.265 14.18 29.345 13.145 29.345 11.645C29.345 10.13 28.64 9.08 23.615 9.08ZM42.4225 10.385C42.0625 12.05 40.5475 13.205 37.3675 13.205C33.6625 13.205 32.2225 11.63 32.2225 9.5C32.2225 7.37 33.6625 5.795 37.3675 5.795C40.5475 5.795 42.0625 6.95 42.4225 8.615H43.4725C43.0975 6.365 41.2675 4.82 37.3675 4.82C32.9725 4.82 31.1875 6.785 31.1875 9.5C31.1875 12.215 32.9725 14.18 37.3675 14.18C41.2675 14.18 43.0975 12.635 43.4725 10.385H42.4225ZM46.8704 10.235C46.8704 7.895 48.4454 5.825 52.3604 5.825V4.82C49.1654 4.82 47.4854 6.215 46.8704 8.06V5H45.8354V14H46.8704V10.235ZM59.8418 4.82C55.4468 4.82 53.6618 6.785 53.6618 9.5C53.6618 12.215 55.4468 14.18 59.8418 14.18C64.2368 14.18 66.0218 12.215 66.0218 9.5C66.0218 6.785 64.2368 4.82 59.8418 4.82ZM59.8418 13.205C56.1368 13.205 54.6968 11.63 54.6968 9.5C54.6968 7.37 56.1368 5.795 59.8418 5.795C63.5468 5.795 64.9868 7.37 64.9868 9.5C64.9868 11.63 63.5468 13.205 59.8418 13.205ZM69.4325 2H68.3975V14H69.4325V2ZM73.3747 2H72.3397V14H73.3747V2ZM88.2011 4.82C84.0611 4.82 82.3211 6.785 82.3211 9.5C82.3211 12.215 84.0611 14.18 88.2011 14.18C91.1711 14.18 92.8961 13.175 93.6461 11.615V14H94.6811V2H93.6461V7.385C92.8961 5.825 91.1711 4.82 88.2011 4.82ZM88.5011 13.205C84.7961 13.205 83.3561 11.63 83.3561 9.5C83.3561 7.37 84.7961 5.795 88.5011 5.795C92.2061 5.795 93.6461 7.37 93.6461 9.5C93.6461 11.63 92.2061 13.205 88.5011 13.205ZM103.21 4.82C98.8149 4.82 97.0299 6.785 97.0299 9.5C97.0299 12.215 98.8149 14.18 103.21 14.18C107.605 14.18 109.39 12.215 109.39 9.5C109.39 6.785 107.605 4.82 103.21 4.82ZM103.21 13.205C99.5049 13.205 98.0649 11.63 98.0649 9.5C98.0649 7.37 99.5049 5.795 103.21 5.795C106.915 5.795 108.355 7.37 108.355 9.5C108.355 11.63 106.915 13.205 103.21 13.205ZM120.165 5H118.98L115.095 12.92L111.465 5H110.34L114.435 14H115.74L119.565 6.23L123.39 14H124.71L128.805 5H127.68L124.05 12.92L120.165 5ZM137.169 4.805C134.394 4.805 132.669 5.96 131.904 7.625V5H130.869V14H131.904V9.8C131.904 7.64 133.479 5.75 136.869 5.75C140.274 5.75 141.369 7.64 141.369 9.8V14H142.404V9.8C142.404 7.055 141.054 4.805 137.169 4.805Z" fill="white"/>
</svg>
