<svg width="30" height="30" viewBox="0 0 30 30" fill="none" xmlns="http://www.w3.org/2000/svg">
<circle cx="15" cy="15" r="15" fill="#7294C7"/>
<path d="M22.3541 18.8364C22.3541 18.7742 22.2919 18.7742 22.2919 18.7119C22.0428 18.2138 21.4824 17.5911 20.7352 16.9062C20.3616 16.5948 20.1748 16.3458 20.0503 16.2212C19.8635 15.9722 19.8635 15.7854 19.9257 15.5363C19.988 15.3495 20.2371 15.0381 20.6729 14.4777C20.922 14.1664 21.0465 13.9796 21.2333 13.7928C22.1673 12.5475 22.6032 11.738 22.4787 11.3644L22.4164 11.3021C22.3542 11.2398 22.2919 11.1776 22.1673 11.1776C22.0428 11.1153 21.856 11.1153 21.6692 11.1776H19.3031C19.2408 11.1776 19.2408 11.1776 19.1162 11.1776C19.054 11.1776 18.9917 11.1776 18.9917 11.1776H18.9295H18.8672L18.8049 11.2398C18.7426 11.3021 18.7426 11.3021 18.7426 11.3644C18.4936 12.0493 18.1822 12.6097 17.8709 13.2324C17.6841 13.5437 17.4973 13.8551 17.3105 14.1041C17.1237 14.3532 16.9992 14.54 16.8746 14.6645C16.7501 14.7891 16.6256 14.8513 16.5633 14.9759C16.501 15.0381 16.3765 15.1004 16.3765 15.0381C16.3142 15.0381 16.252 15.0381 16.252 14.9759C16.1897 14.9136 16.1274 14.8513 16.0652 14.7891C16.0029 14.7268 16.0029 14.6023 15.9406 14.4777C15.9406 14.3532 15.9406 14.2287 15.9406 14.1664C15.9406 14.1041 15.9406 13.9173 15.9406 13.7928C15.9406 13.606 15.9406 13.4815 15.9406 13.4192C15.9406 13.2324 15.9406 12.9833 15.9406 12.7343C15.9406 12.4852 15.9406 12.2984 15.9406 12.1739C15.9406 12.0493 15.9406 11.8625 15.9406 11.738C15.9406 11.5512 15.9406 11.4266 15.9406 11.3644C15.9406 11.3021 15.8784 11.1776 15.8784 11.1153C15.8161 11.053 15.7538 10.9908 15.6915 10.9285C15.6293 10.8662 15.5048 10.8662 15.4425 10.804C15.1311 10.7417 14.7576 10.6794 14.3217 10.6794C13.3254 10.6794 12.6405 10.7417 12.3914 10.8662C12.2669 10.9285 12.1423 10.9908 12.0801 11.1153C11.9555 11.2398 11.9555 11.3021 12.0178 11.3021C12.3291 11.3644 12.5782 11.4889 12.7027 11.6757L12.765 11.8003C12.8273 11.8625 12.8273 11.9871 12.8895 12.1739C12.9518 12.3607 12.9518 12.5475 12.9518 12.7965C12.9518 13.1701 12.9518 13.5437 12.9518 13.7928C12.9518 14.1041 12.8895 14.2909 12.8895 14.4777C12.8895 14.6645 12.8273 14.7891 12.765 14.8513C12.7027 14.9759 12.7027 15.0381 12.6405 15.0381C12.6405 15.0381 12.6405 15.1004 12.5782 15.1004C12.5159 15.1004 12.4537 15.1627 12.3291 15.1627C12.2669 15.1627 12.1423 15.1004 12.0801 15.0381C11.9555 14.9759 11.831 14.8513 11.7687 14.7268C11.6442 14.6023 11.5197 14.4155 11.3951 14.1664C11.2706 13.9173 11.0838 13.6683 10.9592 13.2947L10.8347 13.0456C10.7724 12.9211 10.6479 12.672 10.5234 12.3607C10.3988 12.0493 10.2743 11.8003 10.1498 11.4889C10.0875 11.3644 10.0252 11.3021 9.96298 11.2398H9.90071C9.90071 11.2398 9.83843 11.1776 9.77617 11.1776C9.7139 11.1776 9.65164 11.1153 9.58937 11.1153H7.34775C7.09868 11.1153 6.97415 11.1776 6.91188 11.2398L6.84961 11.3021C6.84961 11.3021 6.84961 11.3644 6.84961 11.4266C6.84961 11.4889 6.84961 11.5512 6.91188 11.6757C7.22322 12.4229 7.59682 13.1701 7.97042 13.9173C8.34402 14.6023 8.71763 15.2249 8.9667 15.6608C9.27804 16.0967 9.5271 16.5326 9.83844 16.9062C10.1498 17.2798 10.3366 17.5288 10.3988 17.6534C10.5234 17.7779 10.5856 17.8402 10.6479 17.9024L10.8347 18.0892C10.9592 18.2138 11.146 18.4006 11.3951 18.5874C11.6442 18.7742 11.9555 18.961 12.2669 19.1478C12.5782 19.3346 12.9518 19.4591 13.3254 19.5837C13.7613 19.7082 14.1349 19.7705 14.5085 19.7082H15.4425C15.6293 19.7082 15.7538 19.6459 15.8784 19.5214L15.9406 19.4591C15.9406 19.3968 16.0029 19.3968 16.0029 19.3346C16.0029 19.2723 16.0029 19.21 16.0029 19.0855C16.0029 18.8364 16.0029 18.6496 16.0652 18.4628C16.1274 18.276 16.1274 18.1515 16.1897 18.027C16.252 17.9024 16.3142 17.8402 16.3765 17.7779C16.4388 17.7156 16.501 17.6534 16.501 17.6534H16.5633C16.6878 17.5911 16.8746 17.6534 16.9992 17.7779C17.186 17.9024 17.3728 18.0892 17.4973 18.276C17.6218 18.4628 17.8086 18.6496 18.0577 18.8987C18.3068 19.1478 18.4936 19.3346 18.6181 19.3969L18.8049 19.5214C18.9294 19.5837 19.054 19.6459 19.2408 19.7082C19.4276 19.7705 19.5521 19.7704 19.6766 19.7704L21.7937 19.7082C21.9805 19.7082 22.1673 19.6459 22.2919 19.5837C22.4164 19.5214 22.4787 19.4591 22.4787 19.3346C22.4787 19.2723 22.4787 19.1478 22.4787 19.0855C22.3541 18.961 22.3541 18.8987 22.3541 18.8364Z" fill="white"/>
</svg>
